<svg width="84" height="32" viewBox="0 0 84 32" fill="none" xmlns="http://www.w3.org/2000/svg">
<g clip-path="url(#clip0)">
<path fill-rule="evenodd" clip-rule="evenodd" d="M79.0877 12.7137C78.8987 15.4748 76.8861 17.0637 74.9641 17.3093C73.053 17.5535 71.2285 16.4722 71.3733 13.8971C71.6779 8.47293 79.4339 7.6524 79.0877 12.7137ZM75.6661 5.80893C71.5161 6.20023 68.2541 9.22054 67.612 13.0542C65.8696 23.4596 81.1359 23.2546 82.8747 13.5968C83.7574 8.69373 80.5367 5.34977 75.6661 5.80893Z" fill="white"/>
<path fill-rule="evenodd" clip-rule="evenodd" d="M12.308 0.71985C12.491 1.10661 12.7387 1.15507 12.6595 1.80774L12.0279 5.3625C11.8718 6.22499 10.4833 14.2709 10.3132 14.8563C9.31829 18.2819 3.99025 18.3267 4.51622 14.5199C4.72953 12.9782 5.08528 11.2984 5.36229 9.76233L6.63518 2.62986C6.76782 1.87961 7.23056 0.716431 6.19139 0.716431L2.26257 0.71801C2.60017 1.28053 2.71272 1.29907 2.55867 2.13546L0.646731 12.8529C0.227938 15.1723 -0.138291 16.9671 1.18007 18.7749C2.95016 21.202 6.65447 21.5165 9.56693 20.3773C10.2611 20.1058 10.914 19.7427 11.5008 19.3089C12.4131 18.6342 13.189 17.8036 13.7966 16.6549C14.3062 15.6911 14.4813 14.7791 14.6919 13.6108L16.7907 1.84397C16.9042 1.19367 16.9669 0.716431 16.1829 0.716431L12.308 0.71985Z" fill="white"/>
<path fill-rule="evenodd" clip-rule="evenodd" d="M37.9173 3.49132L38.7813 11.4024L34.3585 11.4065L37.9173 3.49132ZM30.3789 20.4804C30.3291 20.1528 30.1932 20.059 30.2783 19.6441L32.5232 15.1728L39.3047 15.173L39.9698 19.9845C40.0593 20.4357 40.3802 20.483 40.8408 20.4809L44.995 20.4787C44.8312 20.0841 44.4125 20.1742 44.2712 19.3597L41.3499 1.86649C41.0888 0.301426 41.2776 0.542412 38.977 0.542412L35.2219 0.547539C35.224 1.40569 35.6374 0.832649 34.9529 2.13141C31.7633 8.28429 28.5232 14.3756 25.3488 20.4804H30.3789Z" fill="white"/>
<path fill-rule="evenodd" clip-rule="evenodd" d="M24.9308 17.2599L18.8708 17.3136L26.4704 9.13247C26.6353 8.97578 26.7652 8.85571 26.8324 8.59362C26.9517 8.12835 27.0232 7.51054 27.113 7.02357C27.2442 6.31139 26.8722 6.18297 26.2077 6.18521L16.9494 6.1923L16.3849 9.47373L22.5787 9.42461L14.9461 17.3935C14.7302 17.613 14.6527 17.9178 14.5906 18.2584C14.5328 18.576 14.2691 19.7134 14.3191 19.9597C14.4398 20.5544 15.3134 20.4803 15.9767 20.4803H24.3165L24.9308 17.2599Z" fill="white"/>
<path fill-rule="evenodd" clip-rule="evenodd" d="M59.233 6.2446L54.7877 6.18648C54.8625 6.64728 55.2405 6.63288 55.0973 7.48472L53.3371 17.2248L51.5082 17.207C48.8883 17.1879 48.4303 17.0174 48.9831 13.9819L50.1989 7.30692C50.4211 6.0317 50.0059 6.1855 48.7184 6.1855C47.797 6.1855 46.8757 6.1855 45.9541 6.1855C46.0365 6.43043 46.1937 6.54595 46.2641 6.80285C46.346 7.1021 46.2788 7.37872 46.2251 7.675L44.9044 15.3156C44.2262 19.2397 46.9351 20.5192 49.6834 20.5192L56.8095 20.4917L59.233 6.2446Z" fill="white"/>
<path fill-rule="evenodd" clip-rule="evenodd" d="M67.0827 2.04701C65.6769 2.02584 65.3368 2.27024 64.9991 3.31447C64.0387 6.10827 62.569 6.301 60.1257 6.2503L59.6202 9.25931C60.5343 9.26253 61.4325 9.27502 61.5508 9.30981C62.1228 9.47781 61.8338 10.3184 61.7406 10.8496L60.7721 16.3348C60.6703 16.9111 60.681 17.4976 60.7972 18.0293C61.0471 19.1718 61.7777 19.8574 62.7248 20.2409C63.6375 20.6102 65.3697 20.7622 66.4148 20.4644L66.9736 17.1966C66.5075 17.2523 65.9953 17.2638 65.5712 17.1346C64.6209 16.845 64.5469 16.1851 64.6953 15.3713L65.806 9.27805C68.6164 9.27805 68.3475 9.58939 68.6533 7.84811C68.9882 5.94073 69.0184 6.1856 66.3578 6.18402L66.5292 5.20613L67.0827 2.04701Z" fill="white"/>
<path d="M7.98273 30.8668H9.40456L9.05875 25.1142H7.13726L6.45518 27.026C6.23419 27.6662 6.01325 28.4258 5.84031 29.0915H5.80187C5.65776 28.4172 5.4656 27.7003 5.25428 27.0346L4.62013 25.1142H2.66993L2.25677 30.8668H3.61146L3.73634 28.6818C3.77472 27.9649 3.81317 27.0772 3.842 26.3005H3.86115C4.02455 27.0516 4.23594 27.871 4.44732 28.5538L5.13901 30.7729H6.28224L7.07005 28.5281C7.31981 27.8539 7.58886 27.0346 7.80018 26.3005H7.81941C7.81941 27.1369 7.84818 27.9734 7.87701 28.6647L7.98273 30.8668ZM21.8052 25.0117C19.9029 25.0117 18.654 26.3005 18.654 28.0246C18.654 29.6719 19.7876 30.9607 21.6994 30.9607C23.6016 30.9607 24.8795 29.8255 24.8795 27.9307C24.8795 26.3347 23.7938 25.0117 21.8052 25.0117ZM21.7763 26.0445C22.7851 26.0445 23.3327 26.9322 23.3327 27.9734C23.3327 29.0915 22.7658 29.9279 21.7763 29.9279C20.7964 29.9279 20.2007 29.1341 20.2007 27.999C20.2007 26.881 20.7771 26.0445 21.7763 26.0445ZM35.2528 30.8668H36.7131V26.2067H38.4809V25.1142H33.5043V26.2067H35.2528V30.8668ZM50.2569 25.0117C48.3546 25.0117 47.1057 26.3005 47.1057 28.0246C47.1057 29.6719 48.2393 30.9607 50.1512 30.9607C52.0534 30.9607 53.3312 29.8255 53.3312 27.9307C53.3312 26.3347 52.2455 25.0117 50.2569 25.0117ZM50.2281 26.0445C51.2367 26.0445 51.7845 26.9322 51.7845 27.9734C51.7845 29.0915 51.2175 29.9279 50.2281 29.9279C49.2481 29.9279 48.6525 29.1341 48.6525 27.999C48.6525 26.881 49.2289 26.0445 50.2281 26.0445ZM62.715 30.8668H64.1656V28.5965H64.598C65.2032 28.605 65.4819 28.7928 65.6644 29.5211C65.8469 30.2324 66.0102 30.6947 66.1064 30.8668H67.6051C67.4801 30.6435 67.288 29.8896 67.0863 29.2295C66.9229 28.6989 66.6732 28.3234 66.2216 28.1612V28.1356C66.7788 27.9564 67.3648 27.4542 67.3648 26.7316C67.3648 26.2052 67.1535 25.797 66.7596 25.5239C66.2985 25.1995 65.626 25.0715 64.6652 25.0715C63.8775 25.0715 63.1857 25.1227 62.715 25.191V30.8668ZM64.1656 26.0857C64.2713 26.0616 64.4731 26.0445 64.8286 26.0445C65.5011 26.0445 65.9046 26.3162 65.9046 26.8339C65.9046 27.3347 65.4723 27.6576 64.7421 27.6576H64.1656V26.0857ZM76.5854 30.5937C76.9504 30.7729 77.6806 30.9522 78.4204 30.9522C80.1977 30.9522 81.0239 30.1328 81.0239 29.1683C81.0239 28.3575 80.4956 27.8283 79.3523 27.4528C78.5068 27.1711 78.1514 27.0089 78.1514 26.6419C78.1514 26.3517 78.4588 26.0872 79.0928 26.0872C79.7174 26.0872 80.1881 26.2493 80.4379 26.3603L80.7645 25.3191C80.3802 25.1568 79.8518 25.0288 79.1121 25.0288C77.5941 25.0288 76.6622 25.7714 76.6622 26.7529C76.6622 27.5894 77.3732 28.1185 78.4492 28.4599C79.2273 28.6989 79.5348 28.9037 79.5348 29.2622C79.5348 29.6378 79.1794 29.8852 78.5068 29.8852C77.8824 29.8852 77.2675 29.7061 76.8832 29.5268L76.5854 30.5937Z" fill="white"/>
</g>
<defs>
<clipPath id="clip0">
<rect width="84" height="31" fill="white" transform="translate(0 0.5)"/>
</clipPath>
</defs>
</svg>
