<svg width="84" height="32" viewBox="0 0 84 32" fill="none" xmlns="http://www.w3.org/2000/svg">
<path fill-rule="evenodd" clip-rule="evenodd" d="M79.0877 13.2137C78.8987 15.9748 76.8861 17.5637 74.9641 17.8093C73.053 18.0535 71.2285 16.9722 71.3733 14.3971C71.6779 8.97293 79.4339 8.1524 79.0877 13.2137ZM75.6661 6.30893C71.5161 6.70023 68.2541 9.72054 67.612 13.5542C65.8696 23.9596 81.1359 23.7546 82.8747 14.0968C83.7574 9.19373 80.5367 5.84977 75.6661 6.30893Z" fill="black"/>
<path fill-rule="evenodd" clip-rule="evenodd" d="M12.308 1.21985C12.491 1.60661 12.7387 1.65507 12.6595 2.30774L12.0279 5.8625C11.8718 6.72499 10.4833 14.7709 10.3132 15.3563C9.31829 18.7819 3.99025 18.8267 4.51622 15.0199C4.72953 13.4782 5.08528 11.7984 5.36229 10.2623L6.63518 3.12986C6.76782 2.37961 7.23056 1.21643 6.19139 1.21643L2.26257 1.21801C2.60017 1.78053 2.71272 1.79907 2.55867 2.63546L0.646731 13.3529C0.227938 15.6723 -0.138291 17.4671 1.18007 19.2749C2.95016 21.702 6.65447 22.0165 9.56693 20.8773C10.2611 20.6058 10.914 20.2427 11.5008 19.8089C12.4131 19.1342 13.189 18.3036 13.7966 17.1549C14.3062 16.1911 14.4813 15.2791 14.6919 14.1108L16.7907 2.34397C16.9042 1.69367 16.9669 1.21643 16.1829 1.21643L12.308 1.21985Z" fill="black"/>
<path fill-rule="evenodd" clip-rule="evenodd" d="M37.9173 3.99132L38.7813 11.9024L34.3585 11.9065L37.9173 3.99132ZM30.3789 20.9804C30.3291 20.6528 30.1932 20.559 30.2783 20.1441L32.5232 15.6728L39.3047 15.673L39.9698 20.4845C40.0593 20.9357 40.3802 20.983 40.8408 20.9809L44.995 20.9787C44.8312 20.5841 44.4125 20.6742 44.2712 19.8597L41.3499 2.36649C41.0888 0.801426 41.2776 1.04241 38.977 1.04241L35.2219 1.04754C35.224 1.90569 35.6374 1.33265 34.9529 2.63141C31.7633 8.78429 28.5232 14.8756 25.3488 20.9804H30.3789Z" fill="black"/>
<path fill-rule="evenodd" clip-rule="evenodd" d="M24.9308 17.7599L18.8708 17.8136L26.4704 9.63247C26.6353 9.47578 26.7652 9.35571 26.8324 9.09362C26.9517 8.62835 27.0232 8.01054 27.113 7.52357C27.2442 6.81139 26.8722 6.68297 26.2077 6.68521L16.9494 6.6923L16.3849 9.97373L22.5787 9.92461L14.9461 17.8935C14.7302 18.113 14.6527 18.4178 14.5906 18.7584C14.5328 19.076 14.2691 20.2134 14.3191 20.4597C14.4398 21.0544 15.3134 20.9803 15.9767 20.9803H24.3165L24.9308 17.7599Z" fill="black"/>
<path fill-rule="evenodd" clip-rule="evenodd" d="M59.233 6.7446L54.7877 6.68648C54.8625 7.14728 55.2405 7.13288 55.0973 7.98472L53.3371 17.7248L51.5082 17.707C48.8883 17.6879 48.4303 17.5174 48.9831 14.4819L50.1989 7.80692C50.4211 6.5317 50.0059 6.6855 48.7184 6.6855C47.797 6.6855 46.8757 6.6855 45.9541 6.6855C46.0365 6.93043 46.1937 7.04595 46.2641 7.30285C46.346 7.6021 46.2788 7.87872 46.2251 8.175L44.9044 15.8156C44.2262 19.7397 46.9351 21.0192 49.6834 21.0192L56.8095 20.9917L59.233 6.7446Z" fill="black"/>
<path fill-rule="evenodd" clip-rule="evenodd" d="M67.0827 2.54701C65.6769 2.52584 65.3368 2.77024 64.9991 3.81447C64.0387 6.60827 62.569 6.801 60.1257 6.7503L59.6202 9.75931C60.5343 9.76253 61.4325 9.77502 61.5508 9.80981C62.1228 9.97781 61.8338 10.8184 61.7406 11.3496L60.7721 16.8348C60.6703 17.4111 60.681 17.9976 60.7972 18.5293C61.0471 19.6718 61.7777 20.3574 62.7248 20.7409C63.6375 21.1102 65.3697 21.2622 66.4148 20.9644L66.9736 17.6966C66.5075 17.7523 65.9953 17.7638 65.5712 17.6346C64.6209 17.345 64.5469 16.6851 64.6953 15.8713L65.806 9.77805C68.6164 9.77805 68.3475 10.0894 68.6533 8.34811C68.9882 6.44073 69.0184 6.6856 66.3578 6.68402L66.5292 5.70613L67.0827 2.54701Z" fill="black"/>
<path d="M7.98273 31.3668H9.40456L9.05875 25.6142H7.13726L6.45518 27.526C6.23419 28.1662 6.01325 28.9258 5.84031 29.5915H5.80187C5.65776 28.9172 5.4656 28.2003 5.25428 27.5346L4.62013 25.6142H2.66993L2.25677 31.3668H3.61146L3.73634 29.1818C3.77472 28.4649 3.81317 27.5772 3.842 26.8005H3.86115C4.02455 27.5516 4.23594 28.371 4.44732 29.0538L5.13901 31.2729H6.28224L7.07005 29.0281C7.31981 28.3539 7.58886 27.5346 7.80018 26.8005H7.81941C7.81941 27.6369 7.84818 28.4734 7.87701 29.1647L7.98273 31.3668ZM21.8052 25.5117C19.9029 25.5117 18.654 26.8005 18.654 28.5246C18.654 30.1719 19.7876 31.4607 21.6994 31.4607C23.6016 31.4607 24.8795 30.3255 24.8795 28.4307C24.8795 26.8347 23.7938 25.5117 21.8052 25.5117ZM21.7763 26.5445C22.7851 26.5445 23.3327 27.4322 23.3327 28.4734C23.3327 29.5915 22.7658 30.4279 21.7763 30.4279C20.7964 30.4279 20.2007 29.6341 20.2007 28.499C20.2007 27.381 20.7771 26.5445 21.7763 26.5445ZM35.2528 31.3668H36.7131V26.7067H38.4809V25.6142H33.5043V26.7067H35.2528V31.3668ZM50.2569 25.5117C48.3546 25.5117 47.1057 26.8005 47.1057 28.5246C47.1057 30.1719 48.2393 31.4607 50.1512 31.4607C52.0534 31.4607 53.3312 30.3255 53.3312 28.4307C53.3312 26.8347 52.2455 25.5117 50.2569 25.5117ZM50.2281 26.5445C51.2367 26.5445 51.7845 27.4322 51.7845 28.4734C51.7845 29.5915 51.2175 30.4279 50.2281 30.4279C49.2481 30.4279 48.6525 29.6341 48.6525 28.499C48.6525 27.381 49.2289 26.5445 50.2281 26.5445ZM62.715 31.3668H64.1656V29.0965H64.598C65.2032 29.105 65.4819 29.2928 65.6644 30.0211C65.8469 30.7324 66.0102 31.1947 66.1064 31.3668H67.6051C67.4801 31.1435 67.288 30.3896 67.0863 29.7295C66.9229 29.1989 66.6732 28.8234 66.2216 28.6612V28.6356C66.7788 28.4564 67.3648 27.9542 67.3648 27.2316C67.3648 26.7052 67.1535 26.297 66.7596 26.0239C66.2985 25.6995 65.626 25.5715 64.6652 25.5715C63.8775 25.5715 63.1857 25.6227 62.715 25.691V31.3668ZM64.1656 26.5857C64.2713 26.5616 64.4731 26.5445 64.8286 26.5445C65.5011 26.5445 65.9046 26.8162 65.9046 27.3339C65.9046 27.8347 65.4723 28.1576 64.7421 28.1576H64.1656V26.5857ZM76.5854 31.0937C76.9504 31.2729 77.6806 31.4522 78.4204 31.4522C80.1977 31.4522 81.0239 30.6328 81.0239 29.6683C81.0239 28.8575 80.4956 28.3283 79.3523 27.9528C78.5068 27.6711 78.1514 27.5089 78.1514 27.1419C78.1514 26.8517 78.4588 26.5872 79.0928 26.5872C79.7174 26.5872 80.1881 26.7493 80.4379 26.8603L80.7645 25.8191C80.3802 25.6568 79.8518 25.5288 79.1121 25.5288C77.5941 25.5288 76.6622 26.2714 76.6622 27.2529C76.6622 28.0894 77.3732 28.6185 78.4492 28.9599C79.2273 29.1989 79.5348 29.4037 79.5348 29.7622C79.5348 30.1378 79.1794 30.3852 78.5068 30.3852C77.8824 30.3852 77.2675 30.2061 76.8832 30.0268L76.5854 31.0937Z" fill="black"/>
</svg>
